<svg width="45" height="45" viewBox="0 0 45 45" fill="none" xmlns="http://www.w3.org/2000/svg">
<g id="cross_svgrepo.com">
<path id="Vector" d="M12.5438 30.5455C12.0166 31.0727 12.0166 31.9273 12.5438 32.4545C13.071 32.9818 13.9258 32.9818 14.453 32.4545L12.5438 30.5455ZM23.453 23.4545C23.9802 22.9273 23.9802 22.0727 23.453 21.5455C22.9258 21.0182 22.0711 21.0182 21.5439 21.5455L23.453 23.4545ZM21.5439 21.5455C21.0167 22.0727 21.0167 22.9273 21.5439 23.4545C22.0711 23.9818 22.9258 23.9818 23.453 23.4545L21.5439 21.5455ZM32.453 14.4546C32.9802 13.9274 32.9802 13.0726 32.453 12.5454C31.9258 12.0182 31.0711 12.0182 30.5439 12.5454L32.453 14.4546ZM23.453 21.5455C22.9258 21.0182 22.0711 21.0182 21.5439 21.5455C21.0167 22.0727 21.0167 22.9273 21.5439 23.4545L23.453 21.5455ZM30.5439 32.4545C31.0711 32.9818 31.9258 32.9818 32.453 32.4545C32.9802 31.9273 32.9802 31.0727 32.453 30.5455L30.5439 32.4545ZM21.5439 23.4545C22.0711 23.9818 22.9258 23.9818 23.453 23.4545C23.9802 22.9273 23.9802 22.0727 23.453 21.5455L21.5439 23.4545ZM14.453 12.5454C13.9258 12.0182 13.071 12.0182 12.5438 12.5454C12.0166 13.0726 12.0166 13.9274 12.5438 14.4546L14.453 12.5454ZM14.453 32.4545L23.453 23.4545L21.5439 21.5455L12.5438 30.5455L14.453 32.4545ZM23.453 23.4545L32.453 14.4546L30.5439 12.5454L21.5439 21.5455L23.453 23.4545ZM21.5439 23.4545L30.5439 32.4545L32.453 30.5455L23.453 21.5455L21.5439 23.4545ZM23.453 21.5455L14.453 12.5454L12.5438 14.4546L21.5439 23.4545L23.453 21.5455Z" fill="black"/>
</g>
</svg>
