<svg width="76" height="76" viewBox="0 0 76 76" fill="none" xmlns="http://www.w3.org/2000/svg">
<g id="operating 1">
<g id="Outline_00000118370432298456109560000010094484867296184493_">
<path id="Vector" d="M8.40963 57.3789L6 56.5221C6 55.0843 6 55.0807 6 53.6429L8.40963 52.786L9.27762 50.6904L8.17968 48.3806C9.19626 47.3641 9.1989 47.3614 10.2156 46.3447L12.5254 47.4427C13.3619 47.0962 13.7844 46.9212 14.6209 46.5747L15.4779 44.165C16.9156 44.165 16.9193 44.165 18.3571 44.165L19.214 46.5747C20.0505 46.9212 20.4731 47.0962 21.3096 47.4427L23.6193 46.3447C24.6359 47.3613 24.6386 47.3639 25.6553 48.3806L24.5573 50.6904C24.9038 51.5269 25.0788 51.9495 25.4253 52.786L27.8349 53.6429C27.8349 55.0807 27.8349 55.0843 27.8349 56.5221L25.4253 57.3791C25.0788 58.2156 24.9038 58.6381 24.5573 59.4746L25.6553 61.7844C24.6387 62.801 24.636 62.8036 23.6193 63.8203L21.3096 62.7224C20.4731 63.0688 20.0505 63.2439 19.214 63.5903L18.3571 66C16.9193 66 16.9156 66 15.4779 66L14.6209 63.5903L12.5254 62.7224L10.2156 63.8203C9.19901 62.8037 9.19637 62.8011 8.17968 61.7844L9.27762 59.4746L8.40963 57.3789Z" stroke="white" stroke-width="2.2" stroke-miterlimit="10"/>
<path id="Vector_2" d="M16.9167 59.1044C19.1381 59.1044 20.9389 57.3036 20.9389 55.0822C20.9389 52.8609 19.1381 51.0601 16.9167 51.0601C14.6953 51.0601 12.8945 52.8609 12.8945 55.0822C12.8945 57.3036 14.6953 59.1044 16.9167 59.1044Z" stroke="white" stroke-width="2.2" stroke-miterlimit="10"/>
<path id="Vector_3" d="M30.5113 48.8765C31.3755 50.7665 31.8571 52.8681 31.8571 55.0821C31.8571 58.8716 30.4463 62.3315 28.1211 64.9652L34.7301 62.8966" stroke="white" stroke-width="2.2" stroke-miterlimit="10"/>
<path id="Vector_4" d="M6.35352 44.5185C9.057 41.815 12.7919 40.1428 16.9174 40.1428C18.3527 40.1428 19.7407 40.3452 21.0545 40.723L17.6069 36.1206" stroke="white" stroke-width="2.2" stroke-miterlimit="10"/>
<path id="Vector_5" d="M26.1945 34.0367L21.6289 32.4131C21.6289 29.6891 21.6289 29.6819 21.6289 26.9579L26.1945 25.3343L27.8392 21.3638L25.7588 16.9874C27.6849 15.0612 27.69 15.0561 29.6162 13.13L33.9926 15.2104C35.5775 14.5538 36.3781 14.2223 37.9631 13.5658L39.5868 9C42.3109 9 42.318 9 45.042 9L46.6656 13.5656C48.2505 14.2222 49.0511 14.5537 50.6361 15.2103L55.0126 13.1299C56.9387 15.056 56.9438 15.0611 58.87 16.9873L56.7896 21.3637C57.4461 22.9486 57.7776 23.7492 58.4342 25.3342L62.9998 26.9578C62.9998 29.6818 62.9998 29.689 62.9998 32.413L58.4342 34.0366C57.7776 35.6215 57.4461 36.4221 56.7896 38.0071L58.87 42.3835C56.9438 44.3097 56.9387 44.3148 55.0126 46.2409L50.6361 44.1605C49.0512 44.8171 48.2506 45.1486 46.6656 45.8052L45.042 50.371C42.318 50.371 42.3109 50.371 39.5868 50.371L37.9632 45.8054L33.9928 44.1608L29.6163 46.2412C27.6901 44.315 27.6851 44.3099 25.7589 42.3838L27.8393 38.0073L26.1945 34.0367Z" stroke="white" stroke-width="2.2" stroke-miterlimit="10"/>
<path id="Vector_6" d="M45.1777 34.9236C47.3106 35.5522 49.1494 36.8646 50.441 38.6068" stroke="white" stroke-width="2.2" stroke-miterlimit="10"/>
<path id="Vector_7" d="M42.3146 41.7522C48.9788 41.7522 54.3811 36.3499 54.3811 29.6857C54.3811 23.0215 48.9788 17.6191 42.3146 17.6191C35.6504 17.6191 30.248 23.0215 30.248 29.6857C30.248 36.3499 35.6504 41.7522 42.3146 41.7522Z" stroke="white" stroke-width="2.2" stroke-miterlimit="10"/>
<path id="Vector_8" d="M27.1442 9.45801C21.0034 14.0705 17.0313 21.4142 17.0313 29.6857L12.7793 23.0203" stroke="white" stroke-width="2.2" stroke-miterlimit="10"/>
<path id="Vector_9" d="M35.6484 54.0799C37.7719 54.6587 40.0068 54.9677 42.3138 54.9677C49.7831 54.9677 56.4958 51.7287 61.124 46.5786L59.4368 54.1633" stroke="white" stroke-width="2.2" stroke-miterlimit="10"/>
<path id="Vector_10" d="M34.1875 38.6068C35.4792 36.8646 37.3179 35.5522 39.4508 34.9236" stroke="white" stroke-width="2.2" stroke-miterlimit="10"/>
<path id="Vector_11" d="M42.3152 36.121C44.5365 36.121 46.3373 34.3202 46.3373 32.0988V28.7661H38.293V32.0988C38.293 34.3202 40.0938 36.121 42.3152 36.121Z" stroke="white" stroke-width="2.2" stroke-miterlimit="10"/>
<path id="Vector_12" d="M38.2918 28.7659H46.3361V26.6973C46.3361 25.4279 45.3071 24.3989 44.0377 24.3989H37.1426L38.2918 28.7659Z" stroke="white" stroke-width="2.2" stroke-miterlimit="10"/>
</g>
</g>
</svg>
