<svg width="55" height="55" viewBox="0 0 55 55" fill="none" xmlns="http://www.w3.org/2000/svg">
<g id="time-management (1) 1">
<g id="g2598">
<g id="g2600">
<path id="path2602" d="M40.3667 5.27173H14.6328" stroke="white" stroke-width="2" stroke-miterlimit="10" stroke-linecap="round" stroke-linejoin="round"/>
</g>
<g id="g2604">
<g id="Clip path group">
<mask id="mask0_6700_6746" style="mask-type:luminance" maskUnits="userSpaceOnUse" x="0" y="0" width="55" height="55">
<g id="clipPath2610">
<path id="path2608" d="M54 54V1H1V54H54Z" fill="white" stroke="white" stroke-width="2"/>
</g>
</mask>
<g mask="url(#mask0_6700_6746)">
<g id="g2606">
<g id="g2612">
<path id="path2614" d="M44.6668 5.27173H45.8269C50.4471 5.27173 54.1929 9.01634 54.1929 13.6376V44.5223C54.1929 49.1424 50.4471 52.8882 45.8269 52.8882H9.1706C4.55038 52.8882 0.804688 49.1424 0.804688 44.5223V13.6376C0.804688 9.01634 4.55038 5.27173 9.1706 5.27173H10.3308" stroke="white" stroke-width="2" stroke-miterlimit="10" stroke-linecap="round" stroke-linejoin="round"/>
</g>
<g id="g2616">
<path id="path2618" d="M42.5163 15.8086H0.804688" stroke="white" stroke-width="2" stroke-miterlimit="10" stroke-linecap="round" stroke-linejoin="round"/>
</g>
<g id="g2620">
<path id="path2622" d="M54.1923 15.8086H45.7383" stroke="white" stroke-width="2" stroke-miterlimit="10" stroke-linecap="round" stroke-linejoin="round"/>
</g>
<g id="g2624">
<path id="path2626" d="M17.4277 22.0454V15.8085" stroke="white" stroke-width="2" stroke-miterlimit="10" stroke-linecap="round" stroke-linejoin="round"/>
</g>
<g id="g2628">
<path id="path2630" d="M17.4277 41.0303V28.3503" stroke="white" stroke-width="2" stroke-miterlimit="10" stroke-linecap="round" stroke-linejoin="round"/>
</g>
<g id="g2632">
<path id="path2634" d="M17.4277 52.8882V47.3345" stroke="white" stroke-width="2" stroke-miterlimit="10" stroke-linecap="round" stroke-linejoin="round"/>
</g>
<g id="g2636">
<path id="path2638" d="M37.5703 31.5371V15.8085" stroke="white" stroke-width="2" stroke-miterlimit="10" stroke-linecap="round" stroke-linejoin="round"/>
</g>
<g id="g2640">
<path id="path2642" d="M37.5703 52.8882V37.8417" stroke="white" stroke-width="2" stroke-miterlimit="10" stroke-linecap="round" stroke-linejoin="round"/>
</g>
<g id="g2644">
<path id="path2646" d="M21.8137 28.3496H8.08064C6.74711 28.3496 5.66602 27.2685 5.66602 25.935V24.4595C5.66602 23.126 6.74711 22.0449 8.08064 22.0449H21.8137C23.1473 22.0449 24.2283 23.126 24.2283 24.4595V25.935C24.2283 27.2685 23.1473 28.3496 21.8137 28.3496Z" stroke="white" stroke-width="2" stroke-miterlimit="10" stroke-linecap="round" stroke-linejoin="round"/>
</g>
<g id="g2648">
<path id="path2650" d="M40.9016 37.842H27.1685C25.835 37.842 24.7539 36.7609 24.7539 35.4274V33.952C24.7539 32.6184 25.835 31.5373 27.1685 31.5373H40.9016C42.2351 31.5373 43.3163 32.6184 43.3163 33.952V35.4274C43.3163 36.7609 42.2351 37.842 40.9016 37.842Z" stroke="white" stroke-width="2" stroke-miterlimit="10" stroke-linecap="round" stroke-linejoin="round"/>
</g>
<g id="g2652">
<path id="path2654" d="M13.3917 47.3345H31.621C32.9551 47.3345 34.0359 46.2538 34.0359 44.9197V43.4448C34.0359 42.1107 32.9551 41.03 31.621 41.03H8.08086C6.74668 41.03 5.66602 42.1107 5.66602 43.4448V44.9197C5.66602 46.2538 6.74668 47.3345 8.08086 47.3345H10.169" stroke="white" stroke-width="2" stroke-miterlimit="10" stroke-linecap="round" stroke-linejoin="round"/>
</g>
<g id="g2656">
<path id="path2658" d="M48.2666 47.3345H43.5767C42.2432 47.3345 41.1621 46.2535 41.1621 44.9198V43.4444C41.1621 42.1109 42.2432 41.0298 43.5767 41.0298H48.2666C49.6001 41.0298 50.6812 42.1109 50.6812 43.4444V44.9198C50.6812 46.2535 49.6001 47.3345 48.2666 47.3345Z" stroke="white" stroke-width="2" stroke-miterlimit="10" stroke-linecap="round" stroke-linejoin="round"/>
</g>
<g id="g2660">
<path id="path2662" d="M12.4804 10.6931C11.2928 10.6931 10.3301 9.7304 10.3301 8.54274V4.26166C10.3301 3.07401 11.2928 2.11129 12.4804 2.11129C13.6681 2.11129 14.6308 3.07401 14.6308 4.26166V8.54274C14.6308 9.7304 13.6681 10.6931 12.4804 10.6931Z" stroke="white" stroke-width="2" stroke-miterlimit="10" stroke-linecap="round" stroke-linejoin="round"/>
</g>
<g id="g2664">
<path id="path2666" d="M42.5156 10.6931C41.3279 10.6931 40.3652 9.7304 40.3652 8.54274V4.26166C40.3652 3.07401 41.3279 2.11129 42.5156 2.11129C43.7033 2.11129 44.666 3.07401 44.666 4.26166V8.54274C44.666 9.7304 43.7033 10.6931 42.5156 10.6931Z" stroke="white" stroke-width="2" stroke-miterlimit="10" stroke-linecap="round" stroke-linejoin="round"/>
</g>
<g id="g2668">
<path id="path2670" d="M7.30273 18.4771H11.0031" stroke="white" stroke-width="2" stroke-miterlimit="10" stroke-linecap="round" stroke-linejoin="round"/>
</g>
<g id="g2672">
<path id="path2674" d="M44.666 18.4771H48.3664" stroke="white" stroke-width="2" stroke-miterlimit="10" stroke-linecap="round" stroke-linejoin="round"/>
</g>
<g id="g2676">
<path id="path2678" d="M25.6484 18.4771H29.3488" stroke="white" stroke-width="2" stroke-miterlimit="10" stroke-linecap="round" stroke-linejoin="round"/>
</g>
</g>
</g>
</g>
</g>
</g>
</g>
</svg>
